/* XPM */
static char *_57f9196be914b3da4c4174ab811d56eBAnb5EVodSTrbSBK[] = {
/* columns rows colors chars-per-pixel */
"32 32 7 1 ",
"  c None",
". c gray26",
"X c #797D96",
"o c #888CA8",
"O c #A4A9C2",
"+ c #B2B7D2",
"@ c #C3C8E3",
/* pixels */
" .............................. ",
".oOOOOOOOOOOOOOOOOOOOOOOOOOOOOO.",
".oOOOOOOOOOOOOOOOOOOOOOOOOOOOO+.",
".oOOOOOOOOOOOOOOOOOOOOOOOOOOOO+.",
".oOOOOOOOOOOOOOOOOOOOOOOOOOOOO+.",
".oOOOOOOOOOOOOOOOOOOOOOOOOOOOO+.",
".oOOOOOOOOOOOOOOOOOOOOOOOOOOOO+.",
".oOOOOOOOOOOOOOOOOOOOOOOOOOOOO+.",
".oOOOOOOOOOOOOOOOOOOOOOOOOOOOO+.",
".oOOOOOOOOOOOOOOOOOOOOOOOOOOOO+.",
".oOOOOOOOOOOOOOOOOOOOOOOOOOOOO+.",
".oOOOOOOOOOOOOOOOOOOOOOOOOOOOO+.",
".oOOOOOOOOOOOOOOOOOOOOOOOOOOOO+.",
".oOOOOOOOOOOOOOOOOOOOOOOOOOOOO+.",
".oOOOOOOOOOOOOOOOOOOOOOOOOOOOO+.",
".oOOOOOOOOOOOOOOOOOOOOOOOOOOOO+.",
".oOOOOOOOOOOOOOOOOOOOOOOOOOOOO+.",
".oOOOOOOOOOOOOOOOOOOOOOOOOOOOO+.",
".oOOOOOOOOOOOOOOOOOOOOOOOOOOOO+.",
".oOOOOOOOOOOOOOOOOOOOOOOOOOOOO+.",
".O++++++++++++++++++++++++++++@.",
".XooooooooooooooooooooooooooooO.",
".XooooooooooooooooooooooooooooO.",
".XooooooooooooooooooooooooooooO.",
".XooooooooooooooooooooooooooooO.",
".XooooooooooooooooooooooooooooO.",
".XooooooooooooooooooooooooooooO.",
".XooooooooooooooooooooooooooooO.",
".XooooooooooooooooooooooooooooO.",
".XooooooooooooooooooooooooooooO.",
".oooooooooooooooooooooooooooooo.",
" .............................. "
};
