/* XPM */
static char *result[] = {
/* columns rows colors chars-per-pixel */
"32 32 12 1 ",
"  c #432E1E",
". c #473A30",
"X c #56483D",
"o c gray26",
"O c #736254",
"+ c #8A796A",
"@ c #797D96",
"# c #888CA8",
"$ c #A4A9C2",
"% c #B2B7D2",
"& c #C3C8E3",
"* c None",
/* pixels */
"*oooooooooooooooooooooooooooooo*",
"o#$$$$$$$$$$$$$$$$$$$$$$$$$$$$$o",
"o#$$$$$$$$$$$$$$$$$$$$$$$$$$$$%o",
"o#$$$$$$$$$$$$$$$$$$$$$$$$$$$$%o",
"o#$$$$$$$$$$$$$$$$$$$$$$$$$$$$%o",
"o#$$$$$$$$$$$$$$$$$$$$$$$$$$$$%o",
"o#$$$$$$$$$$$$$$$$$$$$$$$$$$$$%o",
"o#$$$$$$$$$$$    $$$$$$$$$$$$$%o",
"o#$$$$$$$$$OOXXXO  $$$$$$$$$$$%o",
"o#$$$$$$$ OOOOXOOO   $$$$$$$$$%o",
"o#$$$$$$ ++++OOOOXOO  $$$$$$$$%o",
"o#$$$$$ ++++++OOXOOOO $$$$$$$$%o",
"o#$$$$$XO+++++O++OOOO  $$$$$$$%o",
"o#$$$$ OO+++++O++XOOXX $$$$$$$%o",
"o#$$$$X++O+++OOOOXXXXXX $$$$$$%o",
"o#$$$$++++OOOOOOXXXXXXX $$$$$$%o",
"o#$$$$++++O+++OOOOXXXX  $$$$$$%o",
"o#$$$$X++O+++++OOOOX    $$$$$$%o",
"o#$$$$$..O+++++OOOOX   $$$$$$$%o",
"o#$$$$$X.O+++++.OOX.   $$$$$$$%o",
"o$%%%%%%..X+++XX..... %%%%%%%%&o",
"o@######....XXXX. ..  ########$o",
"o@#######....XX..    #########$o",
"o@#########......  ###########$o",
"o@########### .. #############$o",
"o@############################$o",
"o@############################$o",
"o@############################$o",
"o@############################$o",
"o@############################$o",
"o##############################o",
"*oooooooooooooooooooooooooooooo*"
};
