/* XPM */
static char *result[] = {
/* columns rows colors chars-per-pixel */
"32 32 34 1 ",
"  c black",
". c #100200",
"X c #260600",
"o c #2D0700",
"O c #3B0800",
"+ c #3D0900",
"@ c #222323",
"# c #440300",
"$ c #440500",
"% c #440C00",
"& c #5B1100",
"* c gray26",
"= c #860500",
"- c #860B00",
"; c #861300",
": c #AA1800",
"> c #B82800",
", c #C40800",
"< c #C41800",
"1 c #FF0A00",
"2 c #FF1E00",
"3 c #C42A00",
"4 c #FF2031",
"5 c #FF3231",
"6 c #FA8600",
"7 c #F6CE24",
"8 c #FFDF57",
"9 c #797D96",
"0 c #888CA8",
"q c #9E9AB9",
"w c #A4A9C2",
"e c #B2B7D2",
"r c #C3C8E3",
"t c None",
/* pixels */
"t******************************t",
"*0wwwwwwwwwwwwwwwwwwwwwwwwwwwww*",
"*0wwwwwwwwwwwwww8wwwwwwwwwwwwwe*",
"*0wwwwwwwwwwwww888wwwwwwwwwwwwe*",
"*0wwwwwwwwwwww78476wwwwwwwwwwwe*",
"*0wwwwwwwwwww677417wwwwwwwwwwwe*",
"*0wwwwwwwwwww7734%77wwwwwwwwwwe*",
"*0wwwwwwwwww67734$177wwwwwwwwwe*",
"*0wwwwwwwww677334$$176wwwwwwwwe*",
"*0wwwwwwwww7733,4$$#77wwwwwwwwe*",
"*0wwwwwwww772<<,4$###76wwwwwwwe*",
"*0wwwwwww672<<<,4#####66wwwwwwe*",
"*0wwwwwww66<<<<,4#####16wwwwwwe*",
"*0wwwwwww6<><<<,4######6wwwwwwe*",
"*0wwwwwww76 55554==== 66wwwwwwe*",
"*0wwwwwww776 ;;;4#$$ 776wwwwwwe*",
"*0wwwwwwww766 --4## 677wwwwwwwe*",
"*0wwwwwwwwww76 +:. 6w66wwwwwwwe*",
"*0wwwwwwwwww766 o 67wwwwwwwwwwe*",
"*0wwwwwwwwwww66 q 77wwwwwwwwwwe*",
"*weeeeeeeeeeeee&O&6eeeeeeeeeeer*",
"*90000000000000&q&000000000000w*",
"*90000000000000XOX000000000000w*",
"*9000000000000@.O.@00000000000w*",
"*9000000000000.O0O.00000000000w*",
"*9000000000000.@0@.00000000000w*",
"*9000000000000O.@.O00000000000w*",
"*90000000000000OOO000000000000w*",
"*90000000000000000000000000000w*",
"*90000000000000000000000000000w*",
"*000000000000000000000000000000*",
"t******************************t"
};
