/* XPM */
static char *result[] = {
/* columns rows colors chars-per-pixel */
"32 32 95 2 ",
"   c #020101",
".  c #090202",
"X  c #070708",
"o  c #090708",
"O  c #0D0B0D",
"+  c #150303",
"@  c #1C0404",
"#  c #131417",
"$  c #16161B",
"%  c #17181C",
"&  c #191A1E",
"*  c #240505",
"=  c #2C0606",
"-  c #330606",
";  c #3A0707",
":  c #3E0708",
">  c #3D0809",
",  c #24242C",
"<  c #2D2E36",
"1  c #2F3038",
"2  c #33343C",
"3  c #480607",
"4  c #440708",
"5  c #4B0709",
"6  c #430809",
"7  c #4D090A",
"8  c #530207",
"9  c #5C0207",
"0  c #560609",
"q  c #5D0409",
"w  c #52090A",
"e  c #5C0B0C",
"r  c #630B0C",
"t  c #6D0F0F",
"y  c #740D0E",
"u  c #7C0B0E",
"i  c #730F10",
"p  c #7A1011",
"a  c #3E4049",
"s  c gray26",
"d  c #41434E",
"f  c #464853",
"g  c #484A55",
"h  c #4E515D",
"j  c #515465",
"k  c #56586A",
"l  c #5E616F",
"z  c #5E6170",
"x  c #64677C",
"c  c #676A7F",
"v  c #820B0E",
"b  c #8C0A0F",
"n  c #850D10",
"m  c #8B0E11",
"M  c #910F11",
"N  c #980B10",
"B  c #851011",
"V  c #971013",
"C  c #AA0C12",
"Z  c #B30B12",
"A  c #BA0C13",
"S  c #A41114",
"D  c #AD1014",
"F  c #C70511",
"G  c #CC0511",
"H  c #C40C14",
"J  c #CD0B14",
"K  c #D00511",
"L  c #DC0713",
"P  c #D40914",
"I  c #DD0813",
"U  c #E30613",
"Y  c #696C82",
"T  c #6C7086",
"R  c #727586",
"E  c #767A8C",
"W  c #787C8E",
"Q  c #797D95",
"!  c #7B7E98",
"~  c #7D8194",
"^  c #7D819B",
"/  c #82869A",
"(  c #878BA7",
")  c #8B8FA4",
"_  c #888CA8",
"`  c #9195AB",
"'  c #989DB4",
"]  c #9DA2BA",
"[  c #A2A7BF",
"{  c #A2A7C0",
"}  c #A4A9C2",
"|  c #ABB0CA",
" . c #B2B7D2",
".. c #C3C8E3",
"X. c None",
/* pixels */
"X.s s s s s s s s s s s s s s s s s s s s s s s s s s s s s s X.",
"s _ } } } } } } } } } } } } } } } } } } } } } } } } } } } } } s ",
"s _ } } } } } } } } } } } } } } } } } } } } } } } } } } } }  .s ",
"s _ } } } } } } } } / E 2             2 E / [ } } } } } } }  .s ",
"s _ } } } } } } ' z & X       = =       X & l ' } } } } } }  .s ",
"s _ } } } } } ` a X         6 Z Z 4         X d ` } } } } }  .s ",
"s _ } } } } ) <           - Z U U Z -           1 ) } } } }  .s ",
"s _ } } } ` 2           . b L U U L b .           1 ` } } }  .s ",
"s _ } } ] g             * C J U L J V *             g ] } }  .s ",
"s _ } } / # . = = 7 r + 5 r 5 v n 7 r 7 + e w = = . # / } }  .s ",
"s _ } } h   w Z H J V 4 C 0 = r r = 0 C 5 m J H Z w X h [ }  .s ",
"s _ } ~ # . p U U I v ; w @ y P P y + 7 > n I U U B   # ~ }  .s ",
"s _ } R X   r J U H - @ > N L U U P m > + - A U J r   X R }  .s ",
"s _ } <     + m P v * v H I U K K U I H n * i H V +     < }  .s ",
"s _ }         ; y - = D U U F 8 8 F U U D = - y >         }  .s ",
"s _ }         . = v w D U I q     9 L U D w v * .         }  .s ",
"s _ }           6 A 0 D U L q     9 L U D 0 A 6           }  .s ",
"s _ } a       @ ; r 6 D U U F 8 8 F U U Z 4 r : @       a }  .s ",
"s _ } W X   . r Z 4 * S P U U G G U U P S * 4 Z r .   X W }  .s ",
"s _ } Q O   @ D U C = = y P U U U U P y = * C U C @   O Q }  .s ",
"s }  .| f   t P U F 6 . @ y H I L H y @ . 4 H U I y   f |  ...s ",
"s Q _ ( k O p A P L m ; y ; 7 m m 7 ; y > n L P A p O k ( ( } s ",
"s Q _ _ ^ , * = e m r = b u @ > 6 ; u m - e m e = * , ^ _ _ } s ",
"s Q _ _ _ T &       .   ; t u A A C i ;   .       & T _ _ _ } s ",
"s Q _ _ _ _ Y $         + m I U U L m @         $ c ( _ _ _ } s ",
"s Q _ _ _ _ ( Y $         - Z L U A -         $ Y ) _ _ _ _ } s ",
"s Q _ _ _ _ ( ( Y , X       4 Z Z 4         , Y ( _ _ _ _ _ } s ",
"s Q _ _ _ _ _ _ _ Q j < X X o - - X X X < j ! _ ( _ _ _ _ _ } s ",
"s Q _ _ _ _ _ _ _ _ _ Q x c j X o j c x Q ( _ _ _ _ _ _ _ _ } s ",
"s Q _ _ _ _ _ _ _ _ _ _ _ _ _ _ _ _ _ _ _ _ _ _ _ _ _ _ _ _ } s ",
"s _ ( ) ( ( _ _ _ _ _ _ _ _ _ _ _ _ _ _ _ _ _ _ _ _ _ _ _ _ _ s ",
"X.s s s s s s a s s s s s s s s s s s s s s s s s s s s s s s X."
};
