/* XPM */
static char *result[] = {
/* columns rows colors chars-per-pixel */
"32 32 118 2 ",
"   c #100713",
".  c #1D141F",
"X  c #1F1621",
"o  c #211723",
"O  c #221925",
"+  c #2A142F",
"@  c #251B29",
"#  c #2C1C2F",
"$  c #2E1532",
"%  c #2E1E31",
"&  c #301D34",
"*  c #351B3B",
"=  c #352239",
"-  c #39253E",
";  c #3C1B43",
":  c #3D2443",
">  c #3D2A43",
",  c #3E3947",
"<  c #402747",
"1  c #412947",
"2  c #47244E",
"3  c #452D4B",
"4  c #482E4F",
"5  c #44324B",
"6  c #49344F",
"7  c #463A4F",
"8  c #482750",
"9  c #4B2D52",
"0  c #54245E",
"q  c #522E5B",
"w  c #4D3253",
"e  c #473B52",
"r  c #483951",
"t  c #503357",
"y  c #52335A",
"u  c #55395C",
"i  c #583B5F",
"p  c #572560",
"a  c #5B2765",
"s  c #5A2963",
"d  c #5E2969",
"f  c #573660",
"g  c #593661",
"h  c #563C60",
"j  c #5C3B64",
"k  c #5F3068",
"l  c #5F3B68",
"z  c #612A6D",
"x  c #623D6B",
"c  c #672D72",
"v  c #6B2E77",
"b  c #673D72",
"n  c #683E73",
"m  c #6D3478",
"M  c gray26",
"N  c #45414F",
"B  c #464351",
"V  c #494255",
"C  c #4A4956",
"Z  c #5F4069",
"A  c #555163",
"S  c #585566",
"D  c #585867",
"F  c #56576A",
"G  c #57586B",
"H  c #5A5A6D",
"J  c #63426C",
"K  c #664170",
"L  c #6B4475",
"P  c #6E4479",
"I  c #6F4879",
"U  c #71447C",
"Y  c #72497C",
"T  c #656676",
"R  c #66697E",
"E  c #754681",
"W  c #784785",
"Q  c #764982",
"!  c #7A4B84",
"~  c #7D4D8A",
"^  c #6A6C82",
"/  c #6D7187",
"(  c #737687",
")  c #777B8D",
"_  c #787C8E",
"`  c #7A7D95",
"'  c #7C7F99",
"]  c #814E8D",
"[  c #81518D",
"{  c #845F8D",
"}  c #824F90",
"|  c #855191",
" . c #895396",
".. c #8B5399",
"X. c #9F77A7",
"o. c #9D78A6",
"O. c #7E8295",
"+. c #7E819C",
"@. c #83869B",
"#. c #97879A",
"$. c #878BA7",
"%. c #888CA8",
"&. c #8C90A5",
"*. c #9296AC",
"=. c #989DB4",
"-. c #B28DBB",
";. c #B79ABD",
":. c #9DA2BA",
">. c #A1A6BE",
",. c #A2A7C0",
"<. c #A4A9C2",
"1. c #ABB0CA",
"2. c #B2B7D2",
"3. c #CEB8D1",
"4. c #CFC8D1",
"5. c #C3C8E3",
"6. c #FCFBFC",
"7. c None",
/* pixels */
"7.M M M M M M M M M M M M M M M M M M M M M M M M M M M M M M 7.",
"M %.<.<.<.<.<.<.<.<.<.<.<.<.<.<.<.<.<.<.<.<.<.<.<.<.<.<.<.<.<.M ",
"M %.<.<.<.<.<.<.<.<.<.<.<.<.<.<.<.<.<.<.<.<.<.<.<.<.<.<.<.<.2.M ",
"M %.<.<.<.<.<.<.<.>.@.) N . . o X . . B ) @.>.<.<.<.<.<.<.<.2.M ",
"M %.<.<.<.<.<.<.=.T 5 4 x I I L L I I h 5 6 T =.<.<.<.<.<.<.2.M ",
"M %.<.<.<.<.<.*.A u t u t 3 6 4 4 3 4 w y j l A *.<.<.<.<.<.2.M ",
"M %.<.<.<.<.&.B x w u u K ! ! Q Q ! ~ P u w 1 J V &.<.<.<.<.2.M ",
"M %.<.<.<.*.V J t K U U 4 # # # # # - L ] [ j w K V *.<.<.<.2.M ",
"M %.<.<.:.S J 9 j U 1 - u Y U I I Y J - 9 x | h w J D =.<.<.2.M ",
"M %.<.<.@.h x 1 I u E x u 4 3 4 3 4 w x j = x ~ > l u @.<.<.2.M ",
"M %.<.<.D n - I t x y 6 K ] [ ] ! [ Y r 4 L l x Q - x D <.<.2.M ",
"M %.<.O.w u u x 3 U > ! ..! U U W U Q [ J 9 Q 3 b j u r O.<.2.M ",
"M %.<.( 5 y x x 3 j j  .U * # + $ + * U [ j j 3 l J t 6 ( <.2.M ",
"M %.<., l w L 1 x t Q U ; z z 0 0 z z ; L Y w l 1 L w l , <.2.M ",
"M %.<.X I 6 P # Y 4 | { #.X.s     0 v * g | 4 Q % P w P X <.2.M ",
"M %.<.X L w P % Y 6 ] -.6.3.z     p v ; g [ w Y % P w L X <.2.M ",
"M %.<.o L w P % Y w ] o.4.;.m d z z v ; k [ 6 U = P w L o <.2.M ",
"M %.<.C j w L 4 u y Y W 9 d d d z z a 2 U Y t i 3 K w u C <.2.M ",
"M %.<.) > y J x > g Z  .~ q 9 8 8 8 0 ]  .x u 1 x J w 3 _ <.2.M ",
"M %.<.` 6 y j x 1 Y 4 ~ ...... . ..... . .x i 1 x x t 6 ` <.2.M ",
"M <.2.1.S b : I 9 n 3 j J ]  . . . . . .L 6 x 4 Y > x S 1.2.5.M ",
"M ` %.$.H j 9 u l l W 3 > w w J J t t 6 4 U i x u 9 h H $.&.<.M ",
"M ` %.%.@.e L > J w j n [ K b g u x x x x i x L > n e ' $.$.<.M ",
"M ` %.%.%.^ r x t x g 9 : = 3 Q W 3 & - 4 x P w x r ( %.%.$.<.M ",
"M ` %.%.%.$.^ , x w J L P P x % % x P P L J t J 6 ^ $.%.%.%.<.M ",
"M ` %.%.%.%.$.^ r i - 1 i i j W W l h i 3 * f r ^ $.%.%.%.%.<.M ",
"M ` $.%.%.%.%.%.^ e l l y t w 9 w w t t l Z e ^ $.%.%.%.%.%.<.M ",
"M ` $.$.%.%.%.%.$.+.F V 3 > r P P w > 3 B F ' %.%.%.%.%.%.%.<.M ",
"M ` %.%.%.%.%.%.%.%.$.` R R F @ @ F ^ R ` %.%.%.%.%.%.%.%.%.<.M ",
"M ` %.%.%.%.%.%.%.%.%.%.%.%.%.%.%.%.$.$.%.%.%.%.%.%.%.%.%.%.<.M ",
"M %.$.&.$.$.%.%.%.%.%.%.%.%.%.%.%.%.%.%.%.%.%.%.%.%.%.%.%.%.%.M ",
"7.M M M M M M 7 M M M M M M M M M M M M M M M M M M M M M M M 7."
};
