/* XPM */
static char * EN2_xpm[] = {
"32 32 5 1",
" 	c #008088",
".	c #FFFFFF",
"+	c #000000",
"@	c #FC9838",
"#	c #00A800",
"        ..    ++              ++",
"      ......  ++              ++",
"      ......  ++              ++",
"    @@......  ++              ++",
"    @@##....@@++              ++",
"  @@@@##....@@++              ++",
"++@@@@##....@@++++++++++++++++++",
"++@@@@##....@@++++++++++++++++++",
"  @@@@......@@        ++        ",
"@@##@@@@..@@@@        ++        ",
"@@##@@@@..@@@@        ++        ",
"@@@@@@@@@@@@@@        ++        ",
"@@@@@@++  @@@@  ##########      ",
"@@@@  ++  @@..##@@######@@##    ",
"@@@@++++++@@..##@@######@@##++++",
"++++++++@@@@..####@@##@@####++++",
"      @@@@..########@@##....##++",
"  @@@@@@@@..######@@##@@##..##++",
"  @@@@@@@@..######@@##@@##..##++",
"    @@@@@@..@@##@@######@@##@@++",
"      @@....##@@##########@@##++",
"      @@..##@@##@@######@@##@@++",
"++++++@@..##@@##@@######@@##@@++",
"++++++@@..@@######@@##@@######++",
"      ++..##########@@########  ",
"      ++....######@@##@@##......",
"      ++....######@@##@@##......",
"      ++@@......@@####......@@  ",
"      ++@@@@@@..........@@@@@@  ",
"      ++  @@@@@@      ++@@@@@@  ",
"++++++++++@@@@@@++++++++@@@@@@++",
"++++++++++++@@@@@@++++@@@@@@++++"};
