/* XPM */
static char * EN3_xpm[] = {
"32 32 5 1",
" 	c #008088",
".	c #000000",
"+	c #FFFFFF",
"@	c #FC9838",
"#	c #00A800",
"              ..              ..",
"              ..        ++    ..",
"              ..        ++    ..",
"              ..      ++++++  ..",
"              ..    @@++++++  ..",
"              ..  @@@@++++##@@..",
"..................@@@@++++##@@..",
"..................@@@@++++##@@..",
"      ..          @@@@++++##@@  ",
"      ..          @@@@++++++@@  ",
"      ..          @@@@++++++@@  ",
"      ..          @@@@@@++@@@@@@",
"      ..          @@@@@@@@@@##@@",
"      ##########    @@@@@@@@@@@@",
"......##########....@@@@@@@@@@@@",
"....##@@######@@##..@@@@..@@@@@@",
"  ######@@##@@####  @@@@    @@@@",
"  ##++++##@@########++@@@@  @@@@",
"  ##++++##@@########++@@@@  @@@@",
"  ##++##@@##@@######++@@@@  @@..",
"  @@##@@######@@##@@++@@@@    ..",
"  ##@@##########@@##++++@@@@  ..",
"..##@@##########@@##++++@@@@....",
"..@@##@@######@@##@@##++@@......",
"  ######@@##@@######@@++@@      ",
"  ########@@##########++        ",
"  ########@@##########++        ",
"++++++##@@##@@######++++        ",
"    ++++++####@@++++++@@@@      ",
"  @@@@@@++++++++++@@@@@@@@@@    ",
"..@@@@@@++++++++++@@@@@@@@@@....",
"@@@@@@@@............@@@@@@@@@@.."};
