/* XPM */
static char *result[] = {
/* columns rows colors chars-per-pixel */
"32 32 25 1 ",
"  c #100F0E",
". c #131212",
"X c #321C13",
"o c #202227",
"O c #31233F",
"+ c #303136",
"@ c #7F0000",
"# c #5A3324",
"$ c #393F45",
"% c #423252",
"& c gray26",
"* c #4A515A",
"= c #C30404",
"- c #E40000",
"; c red",
": c #967860",
"> c #C77757",
", c #D58E72",
"< c #797D96",
"1 c #888CA8",
"2 c #F7C282",
"3 c #A4A9C2",
"4 c #B2B7D2",
"5 c #C3C8E3",
"6 c None",
/* pixels */
"6&&&&&&&&&&&&&&&&&&&&&&&&&&&&&&6",
"&133333333333333333333333333333&",
"&133333333333333333333333333334&",
"&133333333333333333333333333334&",
"&133333333333333333333333333334&",
"&1333333333333.oooooo3333333334&",
"&13333333333.o++oo..33333333334&",
"&133333333..+++++....oo33333334&",
"&13333333..++$$+oo+.oo333333334&",
"&13333333.++*$$$$$++oo.33333334&",
"&1333333.oo***$*$$$+ooo.3333334&",
"&1333333oo***.o*$$+++oo33333334&",
"&13333333.$$.oo**$+o+o..3333334&",
"&1333333.o$o.>oo**ooooo.3333334&",
"&1333333.ooX;>2oo.oooooo3333334&",
"&1333333.ooX >2>o..o.ooo3333334&",
"&1333333.--X>>>>>#@--.+oo333334&",
"&1333333---@#>>>#@@---+.o333334&",
"&1333333@@@@:OOO:@@@@@...333334&",
"&1333333@--@-----OO---+.3333334&",
"&3444444 %% -----OO%% oo4444445&",
"&<111111 >> -----O >> 111111113&",
"&<111111 OO @@@@@% OO 111111113&",
"&<111111 O  @===@% OO 111111113&",
"&<1111111 ,,@@@@@,,  1111111113&",
"&<11111111    1     11111111113&",
"&<11111111111111111111111111113&",
"&<11111111111111111111111111113&",
"&<11111111111111111111111111113&",
"&<11111111111111111111111111113&",
"&111111111111111111111111111111&",
"6&&&&&&&&&&&&&&&&&&&&&&&&&&&&&&6"
};
