/* XPM */
static char *result[] = {
/* columns rows colors chars-per-pixel */
"32 32 25 1 ",
"  c #100F0E",
". c #131212",
"X c #321C13",
"o c #202227",
"O c #31233F",
"+ c #303136",
"@ c #7F0000",
"# c #5A3324",
"$ c #393F45",
"% c #423252",
"& c gray26",
"* c #4A515A",
"= c #C30404",
"- c #E40000",
"; c red",
": c #967860",
"> c #C77757",
", c #D58E72",
"< c #797D96",
"1 c #888CA8",
"2 c #F7C282",
"3 c #A4A9C2",
"4 c #B2B7D2",
"5 c #C3C8E3",
"6 c None",
/* pixels */
"6&&&&&&&&&&&&&&&&&&&&&&&&&&&&&&6",
"&133333333333333333333333333333&",
"&133333333333333333333333333334&",
"&133333333333333333333333333334&",
"&133333333333333333333333333334&",
"&1333333333oooooo.3333333333334&",
"&13333333333..oo++o.33333333334&",
"&13333333oo....+++++..333333334&",
"&133333333oo.+oo+$$++..33333334&",
"&13333333.oo++$$$$$*++.33333334&",
"&1333333.ooo+$$$*$***oo.3333334&",
"&13333333oo+++$$*o.***oo3333334&",
"&1333333..o+o+$**oo.$$.33333334&",
"&1333333.ooooo**oo>.o$o.3333334&",
"&1333333oooooo.oo2>;Xoo.3333334&",
"&1333333ooo.o..o>2> Xoo.3333334&",
"&133333oo+.--@#>>>>>X--.3333334&",
"&133333o.+---@@#>>>#@---3333334&",
"&133333...@@@@@:OOO:@@@@3333334&",
"&1333333.+---OO-----@--@3333334&",
"&3444444oo %%OO----- %% 4444445&",
"&<11111111 >> O----- >> 1111113&",
"&<11111111 OO %@@@@@ OO 1111113&",
"&<11111111 OO %@===@  O 1111113&",
"&<111111111  ,,@@@@@,, 11111113&",
"&<1111111111     1    111111113&",
"&<11111111111111111111111111113&",
"&<11111111111111111111111111113&",
"&<11111111111111111111111111113&",
"&<11111111111111111111111111113&",
"&111111111111111111111111111111&",
"6&&&&&&&&&&&&&&&&&&&&&&&&&&&&&&6"
};
