/* XPM */
static char *bb3821a2896145ede74c47bffdf31f3d1r7UnSF2qz0i3W4B[] = {
/* columns rows colors chars-per-pixel */
"32 32 2 1 ",
"  c black",
". c #C84C0C",
/* pixels */
"..............  ..............  ",
"..............  ..............  ",
"..............  ..............  ",
"..............  ..............  ",
"..............  ..............  ",
"..............  ..............  ",
"                                ",
"                                ",
"......  ..............  ........",
"......  ..............  ........",
"......  ..............  ........",
"......  ..............  ........",
"......  ..............  ........",
"......  ..............  ........",
"                                ",
"                                ",
"..............  ..............  ",
"..............  ..............  ",
"..............  ..............  ",
"..............  ..............  ",
"..............  ..............  ",
"..............  ..............  ",
"                                ",
"                                ",
"......  ..............  ........",
"......  ..............  ........",
"......  ..............  ........",
"......  ..............  ........",
"......  ..............  ........",
"......  ..............  ........",
"                                ",
"                                "
};
