/* XPM */
static char *dbd49c185de04d8da8456084863d8519bMuZulkMN8nOF4QA[] = {
/* columns rows colors chars-per-pixel */
"32 32 42 1 ",
"  c black",
". c #21170F",
"X c #231D18",
"o c #383029",
"O c #432E1E",
"+ c #453427",
"@ c #46372B",
"# c #48372A",
"$ c #4F3B2B",
"% c #4C3B2D",
"& c #473A30",
"* c #453C35",
"= c #4A3D33",
"- c #4E4136",
"; c #514135",
": c #56483D",
"> c #5B4839",
", c #76482C",
"< c #5D4E42",
"1 c #665344",
"2 c #675546",
"3 c #635448",
"4 c #645548",
"5 c #68584B",
"6 c #6B5B4E",
"7 c #6C5D50",
"8 c #706053",
"9 c #736254",
"0 c #786759",
"q c #7E6D5F",
"w c #853D15",
"e c #864019",
"r c #87431E",
"t c #A64410",
"y c #8F4A24",
"u c #914A22",
"i c #9C562F",
"p c #9D5730",
"a c #A9623B",
"s c #C84C0C",
"d c #847364",
"f c #8A796A",
/* pixels */
"ssssssssssssss  ssssssssssssss  ",
"ssssssssssssss  ssssssssssssss  ",
"sssssssssssssw..wwwsssssssssss  ",
"sssssssssssssOOOOOOsssssssssss  ",
"ssssssssss999::::49OOOssssssss  ",
"ssssssswup9994<:469>$Owwwsssss  ",
"       O>999994:9999>OOOO       ",
"     .Offffff999999:499>OO.     ",
"ssssw,1ffffffq0996446992>Owsssss",
"ssssO1ffffffffq994:999999Owsssss",
"ssss:49fffffffq9fff999999OOOssss",
"sstw469fffffffq9fff469964%+Ossss",
"sswO999fffffffq9fff:4994::%Ossss",
"ssy:fff9qffff999999:::::::::Owss",
"  o8fffqqqqqq999964:::::::::O.  ",
"  *fffffq999999994::::::::::O.  ",
"ssafffffq9ffffq999994:::::%OOw  ",
"ssi8fffqqqffffdq999964:;%%+OOw  ",
"ssy:fff9qfffffff999999:%OOOOOw  ",
"ssss&&&9qfffffff999999:%OOOOss  ",
"ssss-=&9qfffffff<59964-#OOOOss  ",
"ssss:-&9qfffffff&<994:&+OOOOss  ",
"     X&&-:ffff8::-&&&&&&&O.     ",
"     X&&=-67883::-&+@&&@+O.     ",
"sssssr&&&&&-:::::-&O+&&+OOwsssss",
"ssssss &&&&&&:::&&&OOOOOOsssssss",
"ssssss Xrr&&&---&&&OOO..wsssssss",
"ssssss  ss&&&&&&&&&OOO  ssssssss",
"ssssss  sssssO+&&+Osss  ssssssss",
"ssssss  ssssswerrewsss  ssssssss",
"                                ",
"                                "
};
