/* XPM */
static char *_531d95bc966412fe59d7807d79f5073BubB4haAUrwa4tDM[] = {
/* columns rows colors chars-per-pixel */
"32 32 42 1 ",
"  c black",
". c #3E1901",
"X c #7C3303",
"o c #684605",
"O c #6A4B0F",
"+ c #74410D",
"@ c #6C4F18",
"# c #69542D",
"$ c #8F3905",
"% c #A23F07",
"& c #914905",
"* c #915018",
"= c #A44F07",
"- c #B54509",
"; c #A65410",
": c #A4561B",
"> c #A66007",
", c #BB7609",
"< c #A86410",
"1 c #AA691A",
"2 c #A0721B",
"3 c #BB7D1C",
"4 c #BF7F1C",
"5 c #A86B24",
"6 c #A76E2E",
"7 c #A27724",
"8 c #A0792F",
"9 c #C84C0C",
"0 c #9D7E43",
"q c #BC8430",
"w c #BE893A",
"e c #D08D0B",
"r c #D29114",
"t c #D4961E",
"y c #C18425",
"u c #D69A27",
"i c #D19B32",
"p c #D89F31",
"a c #D6A13B",
"s c #D5A445",
"d c #D3A64F",
"f c #D2A95A",
/* pixels */
"99999999999999  99999999999999  ",
"99999999999999  99999999999999  ",
"99999999999999  99999999999999  ",
"99999999999999  99999999999999  ",
"999999%<111X>>>>>>>>>=%-999999  ",
"999999XtpppXeeeeeeeee>X%999999  ",
"     .t56X*6>eeeeeeeeee,.       ",
"     .t56X6f>eeeeeeeeeeeX       ",
"99999%e41X6f>rerrerrerrrX9999999",
"99999-><1X*642t22t22t2uuX9999999",
"999999..%%%X7@@@@@@@@@7pX9999999",
"999999  99-188@88@88@88aX9999999",
"999999  99%f## ## ## ff699999999",
"999999  9%:f#########0f699999999",
"         X6 ## ## ## f6.        ",
"        .pspsspsspssps1.        ",
"9999999-;t2oOOoOOoOOo1%9999999  ",
"9999999%1eoeooeooeooe1%9999999  ",
"9999999=,eeeeeeeeeeee%99999999  ",
"9999999>eeeeeeeeeeeee=-9999999  ",
"999999%,ee,>>>>>>>>>>&$%%-9999  ",
"999999Xrt>>>&*66666666666:-999  ",
"      Xty>3iq6fddfddfdddsw+     ",
"      Xt1e366*saasaasaaapa1     ",
"999999Xt1e>ff6pttpttptttet>99999",
"999999Xr4>&66*trrtrrtrrrer>99999",
"999999 >eeee>>eeeeeeeeeee>%99999",
"999999 .XXXXXXXXXXXXXXXXX%999999",
"999999  99999999999999  99999999",
"999999  99999999999999  99999999",
"                                ",
"                                "
};
