/* XPM */
static char *f0d883d8c20644bddac0519d4eeacf8as2MQqd07O8B5ZREu[] = {
/* columns rows colors chars-per-pixel */
"32 32 21 1 ",
"  c black",
". c #111111",
"X c #222323",
"o c #212224",
"O c #29303E",
"+ c #313438",
"@ c #642606",
"# c #753717",
"$ c #3A414F",
"% c #434549",
"& c #41454C",
"* c #53575D",
"= c #64686E",
"- c #626871",
"; c #955A3E",
": c #C84C0C",
"> c #8D5644",
", c #727984",
"< c #848B95",
"1 c #828B98",
"2 c #8995AC",
/* pixels */
"::::::::::::::  ::::::::::::::  ",
"::::::::::::::  ::::::::::::::  ",
"::::::::::::::  ::::::::::::::  ",
"::::::::::::::oo::::::::::::::  ",
"::::::::::::::**::::::::::::::  ",
"::::::::::::::**::::::::::::::  ",
"             +<=.               ",
"             +<=.               ",
"::::::  ::::;-<=X#::::  ::::::::",
"::::::  ::::;-<=X#::::  ::::::::",
"::::::  :::;--,*XX#:::  ::::::::",
"::::::  :::;--,*XX#:::  ::::::::",
"::::::  ::;---,*XXX#::  ::::::::",
"::::::  ::;---,*XXX#::  ::::::::",
"         +----,*XXXX.           ",
"          &1111-%%%o            ",
"::::::::::@o%%-*XX.@::::::::::  ",
":::::::::::@o%-*X.@:::::::::::  ",
"::::::::::::@o*%.@::::::::::::  ",
":::::::::::::@..@:::::::::::::  ",
":::::::::::::>22>:::::::::::::  ",
":::::::::::::>$$>:::::::::::::  ",
"             O22O               ",
"             .XX.               ",
"::::::  ::::#X##X#::::  ::::::::",
"::::::  ::::##::##::::  ::::::::",
"::::::  ::::#X##X#::::  ::::::::",
"::::::  :::::#XX#:::::  ::::::::",
"::::::  ::::::::::::::  ::::::::",
"::::::  ::::::::::::::  ::::::::",
"                                ",
"                                "
};
