/* XPM */
static char *_621c2f27a4a48f292df3d1028d2358eE7xBDUaepzZQVs9N[] = {
/* columns rows colors chars-per-pixel */
"32 32 54 1 ",
"  c black",
". c #1D0400",
"X c #3B0800",
"o c #470B00",
"O c #640F00",
"+ c #721000",
"@ c #642606",
"# c #7D4300",
"$ c #7B6712",
"% c #7F6F2B",
"& c #8C1200",
"* c #8F1400",
"= c #A81600",
"- c #B91200",
"; c #B51900",
": c #812A06",
"> c #AB3106",
", c #FF0A00",
"< c #FF0D00",
"1 c #FF1100",
"2 c #FF1400",
"3 c #FF1E00",
"4 c #F72700",
"5 c #FF2400",
"6 c #EF3100",
"7 c #FF3300",
"8 c #9A4700",
"9 c #B74B00",
"0 c #C84C0C",
"q c #FC4B00",
"w c #FC4D00",
"e c #FC5200",
"r c #FC5500",
"t c #F45B00",
"y c #FC5C00",
"u c #E16906",
"i c #FF6000",
"p c #FA6C12",
"a c #FA7612",
"s c #FA7C12",
"d c #DF8D18",
"f c #FA8600",
"g c #FF8A00",
"h c #FC8E00",
"j c #FA8012",
"k c #FAA512",
"l c #F8AA12",
"z c #FAB212",
"x c #E39531",
"c c #FCB22B",
"v c #FFBB2B",
"b c #F6CE24",
"n c #FAD63D",
"m c #FFDF57",
/* pixels */
"00000000000000  00000000000000  ",
"00000000000000  00000000000000  ",
"00000000000000%%00000000000000  ",
"0000000000000xmmx0000000000000  ",
"000000000000ucmmx0000000000000  ",
"000000000000dnvzbd000000000000  ",
"           #lnvhll#             ",
"           $bkgisb$             ",
"000000  00ulbjyqqlbd00  00000000",
"000000  0ulbj7yq1pblu0  00000000",
"000000  0dbj73,<1<pbd0  00000000",
"000000  dba332,<<,,plu  00000000",
"000000 #la3332,,,,,,qf# 00000000",
"000000 #ft4332,,,,,,,q# 00000000",
"       #t64332,,,,,,,q#         ",
"        #e33332,,,,,q#          ",
"000000000ur5552,<22wu000000000  ",
"0000000000uw22<,,,qu0000000000  ",
"00000000000uw-=&X8u00000000000  ",
"000000000000u9*+8u000000000000  ",
"0000000000000@..@0000000000000  ",
"0000000000000>;;>0000000000000  ",
"             oOOo               ",
"             o;;o               ",
"000000  00000:XX:00000  00000000",
"000000  0000:X::X:0000  00000000",
"000000  0000::00::0000  00000000",
"000000  0000:X::X:0000  00000000",
"000000  00000:XX:00000  00000000",
"000000  00000000000000  00000000",
"                                ",
"                                "
};
