/* XPM */
static char * EN1_xpm[] = {
"32 32 14 1",
" 	c #C84C0C",
".	c #C30404",
"+	c #000000",
"@	c #D52F2F",
"#	c #FA7B69",
"$	c #131212",
"%	c #5A3324",
"&	c #F5F7FA",
"*	c #321C13",
"=	c #100F0E",
"-	c #D58E72",
";	c #55B67D",
">	c #E65218",
",	c #FA9269",
"             .++ ..           ++",
"          .........           ++",
"       @...@@....@@ @@        ++",
"       @...@@....@@ @@        ++",
"       @@@.@@@..@@@@@@.       ++",
"       .@@@@@@@@@@@@@@@..     ++",
"+++++++.@@@@@@@@@@@@@@@..+++++++",
"+++++.....@@@@@@@@@@@@...+++++++",
"    ....@@@@@@@@@@@@@@@..       ",
"    ....@@@@@@@@@@@@@@@..       ",
"     ..@@@@##@@@@@@@##@+        ",
"    ...@@@####@@@@@###@+        ",
"    ...@@@####@@@@@###@+        ",
"     ..@@@#..#######..$+        ",
"+++++...###...#####...$+++++++++",
"+++++...###...#####...$+++++++++",
"       .%%###&..###.&&$       ++",
"        $$%##&&&###&&&$       ++",
"        $$%##&&&###&&&$       ++",
"       $$$%%%#######**#==     ++",
"     $$$#####%#####%###==     ++",
"     $$$#####%#####%###==     ++",
"+++++$$#######%%%%%####==+++++++",
"+++++$$###=#########==#==+++++++",
"     $$###=#########==#==       ",
"     $$#=====######====--=      ",
"     $$###=;;;;;;;;;==---=      ",
"     $$###=;;;;;;;;;==---=      ",
"      +$===>>>>>=>>>=====       ",
"      ++==,,,=======,,=+        ",
"++++++++==,,,=======,,=+++++++++",
"++++++++========+=====++++++++++"};
