/* XPM */
static char * EN3_xpm[] = {
"32 32 14 1",
" 	c #C84C0C",
".	c #C30404",
"+	c #000000",
"@	c #D52F2F",
"#	c #FA7B69",
"$	c #131212",
"%	c #F5F7FA",
"&	c #5A3324",
"*	c #100F0E",
"=	c #321C13",
"-	c #D58E72",
";	c #55B67D",
">	c #E65218",
",	c #FA9269",
"            ..++ .            ++",
"            .........         ++",
"         @@ @@....@@...@      ++",
"         @@ @@....@@...@      ++",
"        .@@@@@@..@@@.@@@      ++",
"      ..@@@@@@@@@@@@@@@.      ++",
"++++++..@@@@@@@@@@@@@@@.++++++++",
"++++++...@@@@@@@@@@@@.....++++++",
"      ..@@@@@@@@@@@@@@@....     ",
"      ..@@@@@@@@@@@@@@@....     ",
"      ++@##@@@@@@@##@@@@..      ",
"      ++@###@@@@@####@@@...     ",
"      ++@###@@@@@####@@@...     ",
"      ++$..#######..#@@@..      ",
"++++++++$...#####...###...++++++",
"++++++++$...#####...###...++++++",
"        $%%.###..%###&&.      ++",
"        $%%%###%%%##&$$       ++",
"        $%%%###%%%##&$$       ++",
"      **#==#######&&&$$$      ++",
"      **###&#####&#####$$$    ++",
"      **###&#####&#####$$$    ++",
"++++++**####&&&&&#######$$++++++",
"++++++**#**#########*###$$++++++",
"      **#**#########*###$$      ",
"     *--****######*****#$$      ",
"     *---**;;;;;;;;;*###$$      ",
"     *---**;;;;;;;;;*###$$      ",
"      *****>>>*>>>>>***$        ",
"      ++*,,*******,,,**+        ",
"++++++++*,,*******,,,**+++++++++",
"+++++++++*****+********+++++++++"};
