/* XPM */
static char *a30bb0561b624456d029b8b965d84804GUP09SXPerOqYQio[] = {
/* columns rows colors chars-per-pixel */
"32 32 117 2 ",
"   c black",
".  c #040303",
"X  c #040404",
"o  c #080707",
"O  c #090909",
"+  c #100F0E",
"@  c #131212",
"#  c #291700",
"$  c #321C13",
"%  c #3D2A05",
"&  c #0E213D",
"*  c #532E00",
"=  c #5D3709",
"-  c #6D2F0F",
";  c #412E27",
":  c #5A3324",
">  c #304B18",
",  c #39630A",
"<  c #3F6E3B",
"1  c #444E1E",
"2  c #7D4500",
"3  c #714B02",
"4  c #7A540B",
"5  c #487119",
"6  c #777319",
"7  c #585926",
"8  c #6D4434",
"9  c #745732",
"0  c #0D336D",
"q  c #0F356F",
"w  c #00307A",
"e  c #285C4E",
"r  c #2B5851",
"t  c #356742",
"y  c #1D5172",
"u  c #225D6B",
"i  c #316C7B",
"p  c #2E7077",
"a  c #724E40",
"s  c #745042",
"d  c #535461",
"f  c #9A3C0C",
"g  c #935F00",
"h  c #A75C00",
"j  c #AF5803",
"k  c #B75406",
"l  c #BF5009",
"z  c #896109",
"x  c #986609",
"c  c #BE6604",
"v  c #AE7804",
"b  c #BD7100",
"n  c #BD7600",
"m  c #90553D",
"M  c #BE7539",
"N  c #C84C0C",
"B  c #C47902",
"V  c #D57108",
"C  c #906B62",
"Z  c #947169",
"A  c #C77757",
"S  c #548425",
"D  c #518822",
"F  c #578029",
"G  c #6E8247",
"H  c #6B835D",
"J  c #AB9814",
"K  c #CB8401",
"L  c #D38600",
"P  c #D38803",
"I  c #DA8E02",
"U  c #D39000",
"Y  c #D78C1D",
"T  c #E28A05",
"R  c #E29704",
"E  c #F0A402",
"W  c #F7AA01",
"Q  c #F0AD02",
"!  c #F7AF01",
"~  c #F7B401",
"^  c #FFB100",
"/  c #FFB500",
"(  c #F0BB02",
")  c #FFBA00",
"_  c #EA9F39",
"`  c #D7AD36",
"'  c #EAA439",
"]  c #EAA939",
"[  c #FFC400",
"{  c #FFC800",
"}  c #FFD400",
"|  c #FFE000",
" . c #81986F",
".. c #B0916D",
"X. c #CE8264",
"o. c #DF9C6C",
"O. c #D58E72",
"+. c #E2A273",
"@. c #E6A87A",
"#. c #DCD36D",
"$. c #0C459D",
"%. c #3D65B6",
"&. c #537585",
"*. c #63628C",
"=. c #6A6D9A",
"-. c #70739F",
";. c #004DC2",
":. c #0B58CD",
">. c #7F8792",
",. c #7A93BA",
"<. c #97AD82",
"1. c #A6BB91",
"2. c #C7AAA6",
"3. c #F7C282",
"4. c #BABFC6",
"5. c #BAC7DB",
"6. c #F5F7FA",
/* pixels */
"N N N N N N N N N N N N N N * # N N l k N N N N N N N N N N     ",
"N N N N N N N N N N N N N N h * N N k h N N N N N N N N N N     ",
"N N N N N N N N h h h N V R h h h h h h h k N N N N N N N N     ",
"N N N N N N N N U K B V T E L b h U n h B c k N N N N N N N     ",
"N N N N N N N N [ Q R R E ^ ^ L h [ U h R B h N N N N N N N     ",
"N N N N N N k h [ [ [ R E ^ ^ ^ ^ [ Q R R B h h k N N N N N     ",
"          * g U Q ~ ) E W ^ ^ ^ ^ ) ! E E I B h *               ",
"          h U [ R E ^ ^ ^ ^ ^ ^ ^ ^ ^ ^ ^ E R h *               ",
"N N N N N [ [ [ [ ) ^ ^ { | ^ { | ^ ^ ^ R B h h k N N N N N N N ",
"N N N N N U U U ) / ^ { } | L ` #.{ ~ E R P B h j k N N N N N N ",
"N N N N N h h h ^ ^ ^ | | | h ..5.| ( R R R R h h h N N N N N N ",
"N N N N N h B R ^ ) [ ;.d h 5.5.5.h d ;.h B R R B h N N N N N N ",
"N N N N N B P R ^ ) [ *.C M 2.2.2.M Z =.M Y E R B h N N N N N N ",
"N N N N N R R R ^ ) [ A X.O.O.O.O.O.O.O.O._ ^ R B h N N N N N N ",
"            3 R h U [ A 8 @ O.@.3.O.s @ O._ ^ h h h             ",
"            % 4 = v ) A 8 @ X.+.3.O.a @ O.' ) h 2 *             ",
"N N N N N N - @ @ z ^ A 8 @ A o.3.O.a + O.] [ h k N N N N N     ",
"N N N N N N - @ F J ^ : m A A A A A A A $ x ^ + - N N N N N     ",
"N N N N N N - @ i G J 7 9 m m m m m m m 1 6 J + - N N N N N     ",
"N N N N N N - @ :.i F F 7 : : : : : : : F F F + - N N N N N     ",
"N N N N N @ q :.:.0 + F F F w w w w e D D p :.+ - N N N N N     ",
"N N N N N @ q :.:.0 + F F F r &.,.r < S > y :.+ - N N N N N     ",
"          @ q :.:.0 + F F F F 1.6.F F F + 0 :.+ o               ",
"          @ s O.+ + + , , , , <.6., , , + + + O.a +             ",
"N N N N N @ s O.a ; + u t 5 5  .4.5 5 5 + ; a O.a + N N N N N N ",
"N N N N N @ s O.O.a + :.i F F H >.F F F + a O.O.a + N N N N N N ",
"N N N N N N O @ + + + :.:.:.:.0 + :.:.:.+ + + + - N N N N N N N ",
"N N N N N N X O + ; a -.%.:.0 & + 0 $.:.a ; + o f N N N N N N N ",
"N N N N N N     + a O.O.-.:.+ + + + 0 :.O.a +   N N N N N N N N ",
"N N N N N N     + + + + + + + - N + + + + + +   N N N N N N N N ",
"                o o o o o o o .   o o o o o o                   ",
"                                                                "
};
