/* XPM */
static char * T_xpm[] = {
"32 32 7 1",
" 	c #C84C0C",
".	c #000000",
"+	c #434549",
"@	c #626871",
"#	c #A6AEBA",
"$	c #222323",
"%	c #828B98",
"              ..              ..",
"              ..+             ..",
"              @@#$$           ..",
"              @@#$$           ..",
"              @@#$$           ..",
"             @@@#$$$          ..",
".............@@@#$$$............",
".............@@@%$$$............",
"      ..   @@@@@%$$$$$..        ",
"      ..   @@@@@%$$$$$..        ",
"      ..  $@@@$$%$$$$$..        ",
"      ..$$$@@$%%%$$$$$$.        ",
"      ..$$$@@$%%%$$$$$$.        ",
"     $$$$$$$$%$$$%%$$$$@@@      ",
"..$$$$$$$$$%%$...$$%$$@@@@@@@...",
"..$$$$$$$$$%%$...$$%$$@@@@@@@...",
" +######%%%%%$.. $$%%%%######++.",
"  @@@@@@@@@$$%$$$%%$$$$$$$$$$ ..",
"  @@@@@@@@@$$%$$$%%$$$$$$$$$$ ..",
"     @@@@@@@@$%%%$$$$$$$$$    ..",
"        @@@+++$$$$$$$$$$$     ..",
"        @@@+++$$$$$$$$$$$     ..",
"..........$+++++%$$$$$$.........",
"...........$$$++%$$$$$..........",
"      ..   $$$++%$$$$$..        ",
"      ..     $$$%$$$  ..        ",
"      ..      $$%++   ..        ",
"      ..      $$%++   ..        ",
"      ..      $$#++   ..        ",
"      ..        #     ..        ",
"................#...............",
"................+..............."};
