/* XPM */
static char *_cdea3bbba10482be29d0a9675646954iffTqxGcC5wVWClO[] = {
/* columns rows colors chars-per-pixel */
"32 32 2 1 ",
"  c black",
". c #008088",
/* pixels */
"..............  ..............  ",
"..............  ..............  ",
"..............  ..............  ",
"..............  ..............  ",
"..............  ..............  ",
"..............  ..............  ",
"                                ",
"                                ",
"......  ..............  ........",
"......  ..............  ........",
"......  ..............  ........",
"......  ..............  ........",
"......  ..............  ........",
"......  ..............  ........",
"                                ",
"                                ",
"..............  ..............  ",
"..............  ..............  ",
"..............  ..............  ",
"..............  ..............  ",
"..............  ..............  ",
"..............  ..............  ",
"                                ",
"                                ",
"......  ..............  ........",
"......  ..............  ........",
"......  ..............  ........",
"......  ..............  ........",
"......  ..............  ........",
"......  ..............  ........",
"                                ",
"                                "
};
