/* XPM */
static char *_4bde47d533c4ca5e72b3afbf564b33aXUuHZ5Dgv5Jz19yH[] = {
/* columns rows colors chars-per-pixel */
"32 32 3 1 ",
"  c black",
". c #C84C0C",
"X c #FCBCB0",
/* pixels */
"..XXXXXXXXXXXXXXXXXXXXXXXXXXXX  ",
"..XXXXXXXXXXXXXXXXXXXXXXXXXXXX  ",
"XX..XXXXXXXXXXXXXXXXXXXXXXXX    ",
"XX..XXXXXXXXXXXXXXXXXXXXXXXX    ",
"XXXX..XXXXXXXXXXXXXXXXXXXX      ",
"XXXX..XXXXXXXXXXXXXXXXXXXX      ",
"XXXXXX..XXXXXXXXXXXXXXXX        ",
"XXXXXX..XXXXXXXXXXXXXXXX        ",
"XXXXXXXX................        ",
"XXXXXXXX................        ",
"XXXXXXXX................        ",
"XXXXXXXX................        ",
"XXXXXXXX................        ",
"XXXXXXXX................        ",
"XXXXXXXX................        ",
"XXXXXXXX................        ",
"XXXXXXXX................        ",
"XXXXXXXX................        ",
"XXXXXXXX................        ",
"XXXXXXXX................        ",
"XXXXXXXX................        ",
"XXXXXXXX................        ",
"XXXXXXXX................        ",
"XXXXXXXX................        ",
"XXXXXX                  ..      ",
"XXXXXX                  ..      ",
"XXXX                      ..    ",
"XXXX                      ..    ",
"XX                          ..  ",
"XX                          ..  ",
"                              ..",
"                              .."
};
