/* XPM */
static char *f64adb60b835413bdbe52f22a56da2937remWJckntMeSnjF[] = {
/* columns rows colors chars-per-pixel */
"32 32 4 1 ",
"  c black",
". c #C84C0C",
"X c #FC9838",
"o c #008088",
/* pixels */
"oooooooooooooo  oooooooooooooo  ",
"oooooooooooooo  oooooooooooooo  ",
"ooooooooooXXXXXXXX    oooooooo  ",
"ooooooooooXXXXXXXX    oooooooo  ",
"ooooooooXXXXXXXXXXXX    oooooo  ",
"ooooooooXXXXXXXXXXXX    oooooo  ",
"        XXXX....XXXX            ",
"        XXXX....XXXX            ",
"ooooooXXXX..XXXX  XXXX    oooooo",
"ooooooXXXX..XXXX  XXXX    oooooo",
"ooooooXXXX..XXXX  XXXX    oooooo",
"ooooooXXXX..XXXX  XXXX    oooooo",
"ooooooXXXX..XXXX  XXXX    oooooo",
"ooooooXXXX..XXXX  XXXX    oooooo",
"      XXXX..XXXX  XXXX          ",
"      XXXX..XXXX  XXXX          ",
"ooooooXXXX..XXXX  XXXX    oooo  ",
"ooooooXXXX..XXXX  XXXX    oooo  ",
"ooooooXXXX..XXXX  XXXX    oooo  ",
"ooooooXXXX..XXXX  XXXX    oooo  ",
"ooooooXXXX..XXXX  XXXX    oooo  ",
"ooooooXXXX..XXXX  XXXX    oooo  ",
"      XXXX..XXXX  XXXX          ",
"      XXXX..XXXX  XXXX          ",
"oooooo  XXXX    XXXX    oooooooo",
"oooooo  XXXX    XXXX    oooooooo",
"oooooo  XXXXXXXXXXXX    oooooooo",
"oooooo  XXXXXXXXXXXX    oooooooo",
"oooooo  ooXXXXXXXX      oooooooo",
"oooooo  ooXXXXXXXX      oooooooo",
"                                ",
"                                "
};
