/* XPM */
static char *e377f513353a4338e1ea0e257f1f6367oDGnrquuoyW4ujuA[] = {
/* columns rows colors chars-per-pixel */
"32 32 4 1 ",
"  c black",
". c #A80000",
"X c #D01010",
"o c #008088",
/* pixels */
"oooooooooooooo  oooooooooooooo  ",
"oooooooooooooo  oooooooooooooo  ",
"oooooooooooo        oooooooooo  ",
"oooooooooooo        oooooooooo  ",
"oooooooooo  XX......  oooooooo  ",
"oooooooooo  XX......  oooooooo  ",
"          XX..........          ",
"          XX..........          ",
"oooooo    XX..........  oooooooo",
"oooooo    XX..........  oooooooo",
"oooooo    ............  oooooooo",
"oooooo    ............  oooooooo",
"oooooo    ............  oooooooo",
"oooooo    ............  oooooooo",
"            ........            ",
"            ........            ",
"oooooooooooo        oooooooooo  ",
"oooooooooooo        oooooooooo  ",
"ooooooooooooooXXXXoooooooooooo  ",
"ooooooooooooooXXXXoooooooooooo  ",
"ooooooooooooooXXXXoooooooooooo  ",
"ooooooooooooooXXXXoooooooooooo  ",
"              XXXX              ",
"              XXXX              ",
"oooooo  ooooooXXXXoooo  oooooooo",
"oooooo  ooooooXXXXoooo  oooooooo",
"oooooo  ooooooXXXXoooo  oooooooo",
"oooooo  ooooooXXXXoooo  oooooooo",
"oooooo  ooooooXXXXoooo  oooooooo",
"oooooo  ooooooXXXXoooo  oooooooo",
"                                ",
"                                "
};
