/* XPM */
static char *_ae546e835f24408a14aeb0e5e8f277aeu2fTdSyOo3Ux6Jm[] = {
/* columns rows colors chars-per-pixel */
"32 32 4 1 ",
"  c black",
". c #00A800",
"X c #80D010",
"o c #008088",
/* pixels */
"oooooooooooooo  oooooooooooooo  ",
"oooooooooooooo  oooooooooooooo  ",
"oooooooooooo        oooooooooo  ",
"oooooooooooo        oooooooooo  ",
"oooooooooo  XX......  oooooooo  ",
"oooooooooo  XX......  oooooooo  ",
"          XX..........          ",
"          XX..........          ",
"oooooo    XX..........  oooooooo",
"oooooo    XX..........  oooooooo",
"oooooo    ............  oooooooo",
"oooooo    ............  oooooooo",
"oooooo    ............  oooooooo",
"oooooo    ............  oooooooo",
"            ........            ",
"            ........            ",
"oooooooooooo        oooooooooo  ",
"oooooooooooo        oooooooooo  ",
"ooooooooooooooXXXXoooooooooooo  ",
"ooooooooooooooXXXXoooooooooooo  ",
"ooooooooooooooXXXXoooooooooooo  ",
"ooooooooooooooXXXXoooooooooooo  ",
"              XXXX              ",
"              XXXX              ",
"oooooo  ooooooXXXXoooo  oooooooo",
"oooooo  ooooooXXXXoooo  oooooooo",
"oooooo  ooooooXXXXoooo  oooooooo",
"oooooo  ooooooXXXXoooo  oooooooo",
"oooooo  ooooooXXXXoooo  oooooooo",
"oooooo  ooooooXXXXoooo  oooooooo",
"                                ",
"                                "
};
