/* XPM */
static char *_41e151fa61c4ee791bac69e66e32565aqP3K53g2dXPNNMD[] = {
/* columns rows colors chars-per-pixel */
"32 32 5 1 ",
"  c black",
". c #D82800",
"X c #887000",
"o c #FC9838",
"O c #008088",
/* pixels */
"OOOOOOOOOOOO..........OOOOOOOO  ",
"OOOOOOOOOOOO..........OOOOOOOO  ",
"OOOOOO..................OOOOOO  ",
"OOOOOO..................OOOOOO  ",
"OOOOOOOOOOooXXooooXXXXXXOOOOOO  ",
"OOOOOOOOOOooXXooooXXXXXXOOOOOO  ",
"      ooooooXXooooooXXooXX      ",
"      ooooooXXooooooXXooXX      ",
"OOOOooooooXXooooooXXXXooXXOOOOOO",
"OOOOooooooXXooooooXXXXooXXOOOOOO",
"OOOOOOXXXXXXXXooooooooXXXXOOOOOO",
"OOOOOOXXXXXXXXooooooooXXXXOOOOOO",
"OOOOOO  oooooooooooooo  OOOOOOOO",
"OOOOOO  oooooooooooooo  OOOOOOOO",
"            XXXXXX..XXXX        ",
"            XXXXXX..XXXX        ",
"OOOOOOXXXXXX..XXXX..XXXXXXOOOO  ",
"OOOOOOXXXXXX..XXXX..XXXXXXOOOO  ",
"OOOOXXXXXXXX........XXXXXXXXOO  ",
"OOOOXXXXXXXX........XXXXXXXXOO  ",
"OOOOooooXX..oo....oo..XXooooOO  ",
"OOOOooooXX..oo....oo..XXooooOO  ",
"    oooooo............oooooo    ",
"    oooooo............oooooo    ",
"OOOOoooo................ooooOOOO",
"OOOOoooo................ooooOOOO",
"OOOOOO  ......OOOO......OOOOOOOO",
"OOOOOO  ......OOOO......OOOOOOOO",
"OOOOOOXXXXXXOOOOOOOOXXXXXXOOOOOO",
"OOOOOOXXXXXXOOOOOOOOXXXXXXOOOOOO",
"    XXXXXXXX        XXXXXXXX    ",
"    XXXXXXXX        XXXXXXXX    "
};
