/* XPM */
static char *_96c8ca620f2453a870d5c87ef515cb8zgehJfmNE9oqPXdK[] = {
/* columns rows colors chars-per-pixel */
"32 32 5 1 ",
"  c black",
". c #D82800",
"X c #887000",
"o c #FC9838",
"O c #008088",
/* pixels */
"OOOOOOOOOO..........OOOOOOOOOO  ",
"OOOOOOOOOO..........OOOOOOOOOO  ",
"OOOOOOOO..................OOOO  ",
"OOOOOOOO..................OOOO  ",
"OOOOOOOOXXXXXXooooXXooOOOOOOOO  ",
"OOOOOOOOXXXXXXooooXXooOOOOOOOO  ",
"      XXooXXooooooXXoooooo      ",
"      XXooXXooooooXXoooooo      ",
"OOOOOOXXooXXXXooooooXXooooooOOOO",
"OOOOOOXXooXXXXooooooXXooooooOOOO",
"OOOOOOXXXXooooooooXXXXXXXXOOOOOO",
"OOOOOOXXXXooooooooXXXXXXXXOOOOOO",
"OOOOOO  OOooooooooooooooOOOOOOOO",
"OOOOOO  OOooooooooooooooOOOOOOOO",
"        XXXX..XXXXXX            ",
"        XXXX..XXXXXX            ",
"OOOOOOXXXXXX..XXXX..XXXXXXOOOO  ",
"OOOOOOXXXXXX..XXXX..XXXXXXOOOO  ",
"OOOOXXXXXXXX........XXXXXXXXOO  ",
"OOOOXXXXXXXX........XXXXXXXXOO  ",
"OOOOooooXX..oo....oo..XXooooOO  ",
"OOOOooooXX..oo....oo..XXooooOO  ",
"    oooooo............oooooo    ",
"    oooooo............oooooo    ",
"OOOOoooo................ooooOOOO",
"OOOOoooo................ooooOOOO",
"OOOOOO  ......OOOO......OOOOOOOO",
"OOOOOO  ......OOOO......OOOOOOOO",
"OOOOOOXXXXXXOOOOOOOOXXXXXXOOOOOO",
"OOOOOOXXXXXXOOOOOOOOXXXXXXOOOOOO",
"    XXXXXXXX        XXXXXXXX    ",
"    XXXXXXXX        XXXXXXXX    "
};
