/* XPM */
static char * T_xpm[] = {
"32 32 5 1",
" 	c #008088",
".	c #000000",
"+	c #D82800",
"@	c #FC9838",
"#	c #887000",
"              ..              ..",
"              ..              ..",
"            ++++++++          ..",
"            ++++++++          ..",
"      @@  ++++++++++++  @@    ..",
"      @@  ++++++++++++  @@    ..",
"..@@@@@@##@@##@@@@##@@##@@@@@@..",
"..@@@@@@##@@##@@@@##@@##@@@@@@..",
"  @@@@####@@##@@@@##@@####@@@@  ",
"  @@@@####@@##@@@@##@@####@@@@  ",
"  @@@@######@@@@@@@@######@@@@  ",
"  @@@@######@@@@@@@@######@@@@  ",
"      ########@@@@########      ",
"      ########@@@@########      ",
"........##@@########@@##........",
"........##@@########@@##........",
"        ##@@@@@@@@@@@@##      ..",
"        ##@@@@@@@@@@@@##      ..",
"      ++++++@@@@@@@@++++++    ..",
"      ++++++@@@@@@@@++++++    ..",
"    ####++++########++++####  ..",
"    ####++++########++++####  ..",
"....######++++####++++######....",
"....######++++####++++######....",
"    ######++@@++++@@++######    ",
"    ######++@@++++@@++######    ",
"    ######++++++++++++######    ",
"    ######++++++++++++######    ",
"      ####++++++++++++####      ",
"      ####++++++++++++####      ",
"................................",
"................................"};
